<svg id="Ebene_1" data-name="Ebene 1" xmlns="http://www.w3.org/2000/svg" viewBox="0 0 506.4 167.55"><defs><style>.cls-1{fill:#ecbe32;}.cls-2{fill:#efc63e;}.cls-3{fill:#c4251a;}</style></defs><title>Logo Natural Leadership_rgb</title><path class="cls-1" d="M158.26,42.64c-0.17.46-.3,0.9-0.42,1.33A13.36,13.36,0,0,1,158.26,42.64Z" transform="translate(-1.3 -1.91)"/><path class="cls-1" d="M158.26,42.64a12.44,12.44,0,0,0-4,5.27A13.78,13.78,0,0,1,158.26,42.64Z" transform="translate(-1.3 -1.91)"/><path class="cls-2" d="M135.71,83.12c-3.22,3-8.32,4.85-11.32,4.28a3.4,3.4,0,0,1-2.75-3C121.87,94.06,133.85,91.74,135.71,83.12Z" transform="translate(-1.3 -1.91)"/><path class="cls-2" d="M142.85,48.25c-7.72,19.11,9,18,6.06,33.17-1.28,6.6-11.9,9.08-12.73,19.94-0.3,3.91,2.24,10.84,5.3,13.24-1.32-2.58-.91-7-0.62-10.74,1-12.53,11.67-15.62,13.14-23.24,3.4-17.53-15.9-16.21-7-38.26C166.15-5,107.51,39.87,113.29,1.91c-9.5,10.21-11,15.76-8.53,19.11C115.69,28.84,156,15.77,142.85,48.25Z" transform="translate(-1.3 -1.91)"/><path class="cls-2" d="M182.24,69.86c0.32-18.74-27.64-12.37-24.44-25.72-2.89,11.77,15.86,11.78,15.59,27.95-0.2,11.84-14.82,14.07-11.78,25.17,1.18,4.3,5.42,5.14,1.23,22.64-6.32,26.42-39.22,43.93-44.23,44.06,1.74,3,43.73-6.61,51.46-38.94,4.83-20.19-.06-21.16-1.42-26.12C165.14,86.09,182,83.52,182.24,69.86Z" transform="translate(-1.3 -1.91)"/><path class="cls-2" d="M123.65,61.92c-2.13-12.9-15.39-11-23-16.42C104.21,56.81,119,54.3,123.65,61.92Z" transform="translate(-1.3 -1.91)"/><path class="cls-2" d="M110.49,92.14C127.17,59.33,98,59.44,99.74,44.76c-2.37-2-4-5-4.27-9.71-11.93,21.28,27,18.62,14.22,57.94-2.66,8.17,1.28,14.28,7,19.78C110.86,106.14,106.72,99.57,110.49,92.14Z" transform="translate(-1.3 -1.91)"/><path class="cls-2" d="M38.85,48.23c-13-28.84,54.37-12.95,37.22-39A20.35,20.35,0,0,1,80.37,16C80,13,77.44,8.94,71.46,3.28c7.92,38-54.23-1.08-39.61,40,8,22.46-.86,19.68-0.59,31.24C33.35,65,44.62,61.69,38.85,48.23Z" transform="translate(-1.3 -1.91)"/><path class="cls-2" d="M51.31,50.77c2.13,3.1,2.14,8.77-1,15.66-0.12.26-4.19,7.72-4.08,11C46.46,84.74,52.68,94,55.75,93a9,9,0,0,0,1.38-.57C53.67,89.06,50,81.81,49.78,75.73c-0.13-4,4.74-12.89,4.88-13.2,3.76-8.23-.26-15.93-2.08-18.72a14.93,14.93,0,0,1-.94-4.47C48.7,42.21,47.89,45.78,51.31,50.77Z" transform="translate(-1.3 -1.91)"/><path class="cls-2" d="M73.08,92.28c5.83,10.58-.56,25.54-21.52,23.24,8.5,9.56,3.71,21-5.4,21.39-4.75.19-9.1,6.43,12.16,23.81-18.75-18.42-11.75-13.54-8.62-13.93,10.82-1.37,16.62-14.14,6.46-25.57,25.07,2.75,32.7-15.13,25.73-27.78C60.34,54.34,99.42,58.91,83.58,32.08a25.77,25.77,0,0,1-1.73,9C84.67,57.93,57.11,63.31,73.08,92.28Z" transform="translate(-1.3 -1.91)"/><path class="cls-2" d="M19.08,126.74c-0.75-2-8.13-16,.31-29.75,4.68-7.64-14.31-15.1-13.63-24.32C6.69,59.85,26.91,64.5,24.95,55.39,20.94,64,1.29,59.6,1.39,70-0.2,90.71,19.88,88.83,14.2,97.91c-11.89,19-1.05,34.33-.16,36.73,13.59,29.12,49.25,30.94,47.13,28.87l-0.24-.24C53.11,161.84,30.08,150.32,19.08,126.74Z" transform="translate(-1.3 -1.91)"/><path class="cls-2" d="M108.82,130.76c0.25,0.43.52,0.87,0.81,1.32,0.57,2.14-.69,5.5-2.78,8.39C111.29,137.7,114.56,130,108.82,130.76Z" transform="translate(-1.3 -1.91)"/><path class="cls-2" d="M118.72,140.71c1.36-16.56-9.37-13.79-7.14-25.06a11,11,0,0,0-4.24,4.61C110.13,125.71,119.68,129,118.72,140.71Z" transform="translate(-1.3 -1.91)"/><path class="cls-3" d="M162.84,119.9c4.19-17.5-.06-18.34-1.23-22.64-3-11.1,11.58-13.32,11.78-25.17,0.27-16.16-18.48-16.18-15.59-27.95,0-.06,0-0.12,0-0.18,0.11-.43.25-0.87,0.42-1.33a13.78,13.78,0,0,0-4,5.27c-3.22,8.18,6.29,15.64,7.21,19.49,3.13,13-10.27,12.79-11.7,30.23-0.37,4.46-1,19-6.77,17.77a3.93,3.93,0,0,1-1.55-.8c-3.06-2.4-5.6-9.34-5.3-13.24C137,90.5,147.63,88,148.91,81.42c2.95-15.2-13.79-14.05-6.06-33.17C156,15.77,115.69,28.84,104.76,21c-2.89-2.07-3.73-5.59-1-11.79C81.1,33.44,134.34,26,131.15,45.5a16.89,16.89,0,0,1-1.94,5.28c-0.2.37-.42,0.75-0.65,1.14-1.95,3.21-1.53,7.46,1.62,14.35,0.12,0.26,4.34,7.72,5.26,10.91a12.08,12.08,0,0,1,.28,5.94c-1.86,8.61-13.83,10.94-14.07,1.3a19.69,19.69,0,0,1,1.32-7c2.77-7.83,2.54-12.5.69-15.55-4.64-7.62-19.44-5.11-23-16.42a16,16,0,0,1-.58-2.66,12.66,12.66,0,0,0-.38,1.91C98,59.44,127.17,59.33,110.49,92.14c-3.77,7.43.36,14,6.18,20.63,12.21,13.92,31.83,28.07,1.27,50.85,0,0.24.24,0.34,0.66,0.33C123.62,163.83,156.52,146.32,162.84,119.9Z" transform="translate(-1.3 -1.91)"/><path class="cls-3" d="M58.32,160.72C37.06,143.34,41.41,137.1,46.16,136.9c9.11-.37,13.9-11.83,5.4-21.39,21,2.3,27.36-12.66,21.52-23.24-16-29,11.59-34.35,8.76-51.18A21.18,21.18,0,0,0,79.1,34c3.33,8.92-1.85,13.42-7.93,18.07-1.16.89-2.35,1.78-3.52,2.71-6.35,5-12.12,11.14-8.93,23.37,0.65,2.49,4.67,11.13-1.58,14.36a9,9,0,0,1-1.38.57c-3.08,1-9.3-8.29-9.52-15.55-0.1-3.33,4-10.78,4.08-11,3.14-6.89,3.13-12.56,1-15.66-3.43-5-2.61-8.56.33-11.44,8.21-8,33-10.6,28.73-23.34a20.35,20.35,0,0,0-4.3-6.77c17.14,26.06-50.21,10.16-37.22,39,5.77,13.45-5.5,16.72-7.59,26.33a15.7,15.7,0,0,0,0,6.46c1.28,6.6,7.11,11.22,7.85,18.32,0.13,1.22,1.21,7.89-3,8.93-3.37.83-4.85-.65-5.5-2.89s-0.45-5.66-.55-7.93c0-.45-0.05-0.89-0.09-1.33-1.37-14.44-14.4-18.31-12.26-27.86,0.54-2.43,3.45-4.05,5.59-6.07,1.87-1.76,3.15-3.82,1.73-7-0.08-.19-0.17-0.38-0.28-0.58a7.66,7.66,0,0,1,.19.75c2,9.1-18.25,4.45-19.19,17.28C5.08,81.89,24.07,89.36,19.39,97c-8.44,13.77-1.06,27.74-.31,29.75,11,23.58,34,35.1,41.85,36.53l0.73,0.11C60.48,162.46,59.38,161.58,58.32,160.72Z" transform="translate(-1.3 -1.91)"/><path class="cls-3" d="M107.34,120.26c-1.15-2.25-1.16-4.86,1.21-8.6-7.55,3.77-7.69,21.22-1,19.36a9.22,9.22,0,0,1,1.3-.27c5.74-.73,2.47,6.94-2,9.71-3.93,2.45-8.76,1.06-9.07-13.4-0.57-26.76,10.07-44.9,1.89-52.49-0.68-.63,2.6-2.36,1.18-2.84-1.75-.59-8.36.15-10.64,0.25-3.75.17-10.1-.07-8.47,12.09,1.3,9.68,2.58,10.95,2.64,9,0.41-13.35,10-11.29,8.44,2.28a23.51,23.51,0,0,1-7.9,15.32c-16,13.92-25,21.47-13.12,41.39,7,11.66,15.35,17.29,18.49,17.35,2,0,27.06-12.08,28.43-28.75C119.68,129,110.13,125.71,107.34,120.26Z" transform="translate(-1.3 -1.91)"/><path class="cls-3" d="M202.09,50.52h8l14,22.69,0.1-.1-0.39-22.59h8.83V86.63h-8l-13.76-22-0.1,0,0.24,21.91h-8.83V50.52Z" transform="translate(-1.3 -1.91)"/><path class="cls-3" d="M250.06,81.41l-1.9,5.22h-9.91l14.49-36.11H260l14.35,36.11h-10l-1.76-5.22H250.06Zm2.54-7.32h7.56l-3.71-12.35h-0.14Z" transform="translate(-1.3 -1.91)"/><path class="cls-3" d="M283.15,58.62H276v-8.1h23.42v8.1h-7.07v28h-9.23v-28Z" transform="translate(-1.3 -1.91)"/><path class="cls-3" d="M314.23,50.52V72.33c0,2.44.15,6.88,4.68,6.88s4.59-4,4.59-6.88V50.52h9.22V72.33c0,6.05-1.32,8.73-3.61,11.08a13.5,13.5,0,0,1-10.1,3.9c-2.64,0-7.42-.63-10.4-3.85S305,77.65,305,72.33V50.52h9.22Z" transform="translate(-1.3 -1.91)"/><path class="cls-3" d="M341.11,50.52h11.42c6.34,0,8.78.78,11.12,2.59A12.5,12.5,0,0,1,368.1,63c0,4.15-2.15,10.25-9,11.37l9.81,12.3H358.39L350,75h-0.1V86.63h-8.83V50.52Zm8.83,18.16h3.27c5.42,0,6.05-3.42,6.05-5.18,0-3.27-2.39-4.88-6-4.88h-3.37V68.68Z" transform="translate(-1.3 -1.91)"/><path class="cls-3" d="M383.91,81.41L382,86.63H372.1l14.49-36.11h7.27l14.35,36.11h-10l-1.76-5.22H383.91Zm2.54-7.32H394L390.3,61.74h-0.15Z" transform="translate(-1.3 -1.91)"/><path class="cls-3" d="M414.11,50.52h9.23v28H434v8.1H414.11V50.52Z" transform="translate(-1.3 -1.91)"/><path class="cls-3" d="M202.33,109.2h9.23v28h10.69v8.1H202.33V109.2Z" transform="translate(-1.3 -1.91)"/><path class="cls-3" d="M227.81,109.2h20.06v8.1H236.64v5.61h10.88V131H236.64v6.2h11.22v8.1H227.81V109.2Z" transform="translate(-1.3 -1.91)"/><path class="cls-3" d="M264.5,140.09l-1.9,5.22h-9.91l14.49-36.11h7.27l14.35,36.11h-10L277,140.09H264.5Zm2.54-7.32h7.56l-3.71-12.35h-0.15Z" transform="translate(-1.3 -1.91)"/><path class="cls-3" d="M294,109.2h12c4.05,0,11.27,0,16,6.73a18.47,18.47,0,0,1,3.32,11.23c0,9.86-4.88,18.15-18.59,18.15H294V109.2Zm9.22,28h4c6.88,0,8.83-4.78,8.83-9.91a12.72,12.72,0,0,0-1.76-6.69c-1.07-1.61-2.93-3.32-7-3.32h-4v19.91Z" transform="translate(-1.3 -1.91)"/><path class="cls-3" d="M332.62,109.2h20.06v8.1H341.45v5.61h10.88V131H341.45v6.2h11.23v8.1H332.62V109.2Z" transform="translate(-1.3 -1.91)"/><path class="cls-3" d="M360.34,109.2h11.42c6.35,0,8.78.78,11.13,2.59a12.51,12.51,0,0,1,4.44,9.86c0,4.15-2.15,10.25-9,11.37l9.81,12.3H377.61l-8.34-11.66h-0.1v11.66h-8.83V109.2Zm8.83,18.16h3.27c5.42,0,6.05-3.42,6.05-5.18,0-3.27-2.39-4.88-6-4.88h-3.37v10.06Z" transform="translate(-1.3 -1.91)"/><path class="cls-3" d="M408.3,119.74c-0.2-1.22-.49-3.51-3.32-3.51a3,3,0,0,0-3.17,2.83c0,2.15,1,2.59,7.47,5.52,6.73,3,8.44,6.15,8.44,10.34,0,5.27-3,11.08-12.59,11.08-10.44,0-13-6.83-13-11.47v-1.17h9.17c0,4.2,2.59,4.93,3.76,4.93a3.48,3.48,0,0,0,3.51-3.46c0-2.39-1.51-3-7.08-5.32-2.54-1-8.83-3.56-8.83-10.34s6.59-10.64,12.64-10.64a12.87,12.87,0,0,1,9.76,4.1,10.91,10.91,0,0,1,2.39,7.13H408.3Z" transform="translate(-1.3 -1.91)"/><path class="cls-3" d="M424.06,109.2h9.23v13.57H445.1V109.2h9.22v36.11H445.1V130.87H433.29v14.45h-9.23V109.2Z" transform="translate(-1.3 -1.91)"/><path class="cls-3" d="M462.81,109.2H472v36.11h-9.23V109.2Z" transform="translate(-1.3 -1.91)"/><path class="cls-3" d="M480.52,109.2h11.81c6.69,0,9.17,1,11.13,2.64a12.28,12.28,0,0,1,4.25,9.57c0,3.66-1.51,7.51-3.81,9.47C501.41,133,499,134,493.35,134h-4v11.32h-8.83V109.2Zm8.83,16.69h3.76c1.76,0,5.76,0,5.76-4.34s-4.1-4.25-6.1-4.25h-3.42v8.59Z" transform="translate(-1.3 -1.91)"/></svg>