<?xml version="1.0" encoding="UTF-8" standalone="no"?>
<svg width="81px" height="44px" viewBox="0 0 81 44" version="1.1" xmlns="http://www.w3.org/2000/svg" xmlns:xlink="http://www.w3.org/1999/xlink">
    <!-- Generator: Sketch 3.8.2 (29753) - http://www.bohemiancoding.com/sketch -->
    <title>Artboard</title>
    <desc>Created with Sketch.</desc>
    <defs></defs>
    <g id="Page-1" stroke="none" stroke-width="1" fill="none" fill-rule="evenodd">
        <g id="Artboard" fill="#000000">
            <path d="M73.665,0.09 L6.335,0.09 C2.842,0.09 0,2.931 0,6.424 L0,37.575 C0,41.068 2.842,43.91 6.335,43.91 L73.666,43.91 C77.159,43.91 80.001,41.068 80.001,37.575 L80.001,6.424 C80,2.931 77.158,0.09 73.665,0.09 L73.665,0.09 Z M73.821,2.678 L45.322,31.176 C43.9,32.598 42.01,33.381 40,33.381 C37.989,33.381 36.099,32.598 34.678,31.176 L6.179,2.678 L73.821,2.678 L73.821,2.678 Z M78.1,37.576 C78.1,39.036 77.387,40.33 76.295,41.139 L59.814,24.657 C59.447,24.29 58.852,24.29 58.484,24.657 L58.471,24.67 C58.104,25.037 58.104,25.632 58.471,26 L74.413,41.942 C74.169,41.984 73.92,42.01 73.665,42.01 L6.335,42.01 C6.08,42.01 5.831,41.984 5.587,41.942 L21.529,26 C21.896,25.633 21.896,25.038 21.529,24.67 L21.516,24.657 C21.149,24.29 20.554,24.29 20.186,24.657 L3.705,41.138 C2.612,40.33 1.9,39.036 1.9,37.576 L1.9,6.424 C1.9,4.971 2.606,3.683 3.689,2.873 L33.335,32.519 C35.115,34.3 37.482,35.28 40,35.28 C42.518,35.28 44.885,34.3 46.666,32.519 L76.312,2.873 C77.395,3.682 78.101,4.971 78.101,6.424 L78.101,37.576 L78.1,37.576 Z" id="Shape"></path>
        </g>
    </g>
</svg>